#define e6b00d6d342e4e6ffd897f7b6448d4445ZWgiv9w6FU5GXMI_width 64
#define e6b00d6d342e4e6ffd897f7b6448d4445ZWgiv9w6FU5GXMI_height 64
static char e6b00d6d342e4e6ffd897f7b6448d4445ZWgiv9w6FU5GXMI_bits[] = {
  0x00, 0x00, 0x00, 0x00, 0x00, 0x00, 0x00, 0x00, 0x00, 0x00, 0x00, 0x00, 
  0x00, 0x00, 0x00, 0x00, 0x00, 0x00, 0x00, 0x00, 0x00, 0x00, 0x00, 0x00, 
  0x00, 0x00, 0x00, 0x00, 0x00, 0x00, 0x00, 0x00, 0x00, 0x00, 0x00, 0x00, 
  0x00, 0x00, 0x00, 0x00, 0x00, 0x00, 0x00, 0x00, 0x00, 0x00, 0x00, 0x00, 
  0x00, 0x00, 0x00, 0x00, 0x00, 0x00, 0x00, 0x00, 0x00, 0x00, 0x00, 0x00, 
  0x00, 0x00, 0x00, 0x00, 0x00, 0x00, 0x00, 0x00, 0x00, 0x00, 0x00, 0x00, 
  0x00, 0x00, 0x00, 0x00, 0x00, 0x00, 0x00, 0x00, 0x00, 0x00, 0x00, 0x00, 
  0x00, 0x00, 0x00, 0x00, 0x00, 0x00, 0x00, 0x00, 0x00, 0x00, 0x00, 0x00, 
  0x00, 0x00, 0x00, 0xF8, 0x1F, 0x00, 0x00, 0x00, 0x00, 0x00, 0x00, 0x1F, 
  0x98, 0x00, 0x00, 0x00, 0x00, 0x00, 0xC0, 0x01, 0x80, 0x03, 0x00, 0x00, 
  0x00, 0x00, 0x70, 0xC8, 0x1F, 0x0E, 0x00, 0x00, 0x00, 0x00, 0x10, 0x0F, 
  0xF0, 0x18, 0x00, 0x00, 0x00, 0x00, 0xC0, 0x41, 0x82, 0x30, 0x00, 0x00, 
  0x00, 0x00, 0xE6, 0xF8, 0x1F, 0x66, 0x00, 0x00, 0x00, 0x00, 0x33, 0x1E, 
  0x78, 0xCC, 0x00, 0x00, 0x00, 0x80, 0x99, 0x83, 0xC0, 0x99, 0x01, 0x00, 
  0x00, 0x80, 0xCC, 0xF8, 0x19, 0x33, 0x01, 0x00, 0x00, 0xC0, 0x66, 0x1C, 
  0x38, 0x26, 0x03, 0x00, 0x00, 0x40, 0x32, 0x87, 0xE1, 0x6C, 0x02, 0x00, 
  0x00, 0x60, 0x93, 0xF1, 0x8F, 0xC9, 0x06, 0x00, 0x00, 0x20, 0x99, 0x00, 
  0x18, 0xDB, 0x04, 0x00, 0x00, 0x20, 0x41, 0x86, 0x01, 0x92, 0x04, 0x00, 
  0x00, 0xB0, 0x61, 0xF6, 0xCF, 0x36, 0x0C, 0x00, 0x00, 0x90, 0x6C, 0x33, 
  0xCC, 0x36, 0x08, 0x00, 0x00, 0xB0, 0x24, 0x89, 0x91, 0x24, 0x0D, 0x00, 
  0x00, 0x90, 0x24, 0xC9, 0xB3, 0x2C, 0x09, 0x00, 0x00, 0x90, 0xB6, 0x6D, 
  0xB6, 0x65, 0x09, 0x00, 0x00, 0x90, 0xB6, 0x29, 0xB4, 0x05, 0x09, 0x00, 
  0x00, 0xB0, 0x24, 0x6D, 0x20, 0x0C, 0x09, 0x00, 0x00, 0x90, 0xA4, 0x69, 
  0x20, 0x6C, 0x09, 0x00, 0x00, 0xB0, 0x84, 0x21, 0xB6, 0x24, 0x01, 0x00, 
  0x00, 0x80, 0x84, 0x61, 0xB6, 0x6D, 0x01, 0x00, 0x00, 0xC0, 0xA6, 0x24, 
  0x92, 0x25, 0x03, 0x00, 0x00, 0xC0, 0xB4, 0x24, 0x92, 0x24, 0x01, 0x00, 
  0x00, 0x40, 0xB6, 0x26, 0x93, 0x2D, 0x01, 0x00, 0x00, 0x00, 0xD3, 0x36, 
  0x92, 0x24, 0x01, 0x00, 0x00, 0x80, 0x59, 0x12, 0x93, 0xB0, 0x01, 0x00, 
  0x00, 0x80, 0x48, 0x13, 0x81, 0x94, 0x00, 0x00, 0x00, 0x00, 0x6E, 0x81, 
  0xC1, 0xB6, 0x00, 0x00, 0x00, 0x00, 0xB2, 0x81, 0xC9, 0x96, 0x00, 0x00, 
  0x00, 0x00, 0x98, 0x8C, 0x4C, 0x12, 0x00, 0x00, 0x00, 0x00, 0xCC, 0xCC, 
  0x6C, 0x1B, 0x00, 0x00, 0x00, 0x00, 0x40, 0x44, 0x24, 0x09, 0x00, 0x00, 
  0x00, 0x00, 0x60, 0x62, 0x26, 0x01, 0x00, 0x00, 0x00, 0x00, 0x00, 0x23, 
  0xB2, 0x01, 0x00, 0x00, 0x00, 0x00, 0x00, 0x31, 0x13, 0x00, 0x00, 0x00, 
  0x00, 0x00, 0x00, 0x10, 0x11, 0x00, 0x00, 0x00, 0x00, 0x00, 0x00, 0x00, 
  0x00, 0x00, 0x00, 0x00, 0x00, 0x00, 0x00, 0x00, 0x00, 0x00, 0x00, 0x00, 
  0x00, 0x00, 0x00, 0x00, 0x00, 0x00, 0x00, 0x00, 0x00, 0x00, 0x00, 0x00, 
  0x00, 0x00, 0x00, 0x00, 0x00, 0x00, 0x00, 0x00, 0x00, 0x00, 0x00, 0x00, 
  0x00, 0x00, 0x00, 0x00, 0x00, 0x00, 0x00, 0x00, 0x00, 0x00, 0x00, 0x00, 
  0x00, 0x00, 0x00, 0x00, 0x00, 0x00, 0x00, 0x00, 0x00, 0x00, 0x00, 0x00, 
  0x00, 0x00, 0x00, 0x00, 0x00, 0x00, 0x00, 0x00, 0x00, 0x00, 0x00, 0x00, 
  0x00, 0x00, 0x00, 0x00, 0x00, 0x00, 0x00, 0x00, 0x00, 0x00, 0x00, 0x00, 
  0x00, 0x00, 0x00, 0x00, 0x00, 0x00, 0x00, 0x00, };
