#define 7140220644ce419ead5fbb88f2436f9aVuFADw2MILMDLDda_width 32
#define 7140220644ce419ead5fbb88f2436f9aVuFADw2MILMDLDda_height 32
static char 7140220644ce419ead5fbb88f2436f9aVuFADw2MILMDLDda_bits[] = {
  0x80, 0x0F, 0xF0, 0x01, 0x60, 0x38, 0x1C, 0x06, 0x18, 0x60, 0x06, 0x18, 
  0x08, 0x80, 0x01, 0x10, 0x04, 0x80, 0x01, 0x20, 0x02, 0x00, 0x00, 0x40, 
  0x02, 0x00, 0x00, 0x40, 0x03, 0x00, 0x10, 0xC0, 0x01, 0x00, 0x10, 0x80, 
  0x01, 0x00, 0x18, 0x80, 0x01, 0x00, 0x38, 0x80, 0x01, 0x00, 0x28, 0x00, 
  0x01, 0x00, 0x28, 0x00, 0x01, 0x00, 0x28, 0x00, 0x02, 0x08, 0x48, 0x00, 
  0x02, 0x08, 0x48, 0x00, 0x7E, 0xF8, 0xC4, 0x7F, 0xC0, 0x8C, 0x05, 0x20, 
  0x80, 0x05, 0x05, 0x30, 0x00, 0x05, 0x05, 0x10, 0x00, 0x06, 0x07, 0x08, 
  0x00, 0x04, 0x06, 0x04, 0x60, 0x00, 0x02, 0x06, 0xC0, 0x00, 0x02, 0x03, 
  0x80, 0x01, 0x80, 0x01, 0x00, 0x03, 0xC0, 0x00, 0x00, 0x06, 0x60, 0x00, 
  0x00, 0x0C, 0x30, 0x00, 0x00, 0x10, 0x08, 0x00, 0x00, 0x60, 0x06, 0x00, 
  0x00, 0xC0, 0x03, 0x00, 0x00, 0x80, 0x01, 0x00, };
