#define e2942d2963a54247cc1051bcbc07aca4Zw5WWNuOXseSmKb0_width 24
#define e2942d2963a54247cc1051bcbc07aca4Zw5WWNuOXseSmKb0_height 21
static char e2942d2963a54247cc1051bcbc07aca4Zw5WWNuOXseSmKb0_bits[] = {
  0xC0, 0x03, 0x0F, 0x60, 0x8E, 0x31, 0x30, 0xD8, 0x60, 0x18, 0x70, 0x40, 
  0x08, 0x30, 0xC0, 0x08, 0x20, 0x80, 0x08, 0x20, 0x80, 0x08, 0x02, 0x80, 
  0x08, 0x02, 0x80, 0x08, 0x03, 0xC0, 0x10, 0x11, 0x40, 0x10, 0x1D, 0x20, 
  0xFF, 0xEC, 0x10, 0x80, 0x0C, 0x18, 0x80, 0x09, 0x0C, 0x00, 0x03, 0x06, 
  0x00, 0x06, 0x03, 0x00, 0x8C, 0x01, 0x00, 0xD8, 0x00, 0x00, 0x70, 0x00, 
  0x00, 0x20, 0x00, };
